<?xml version="1.0" encoding="UTF-8"?>
<svg id="Layer_2" data-name="Layer 2" xmlns="http://www.w3.org/2000/svg" viewBox="0 0 1214.51 1197.14">
  <defs>
    <style>
      .cls-1 {
        fill: #777;
      }

      .cls-2 {
        fill: #e7e7e7;
      }

      .cls-3 {
        fill: #fff;
      }

      .cls-4 {
        fill: #f0f0f0;
      }

      .cls-5 {
        fill: #c2c2c2;
      }

      .cls-6 {
        fill: #898989;
      }
    </style>
  </defs>
  <g id="_2" data-name=" 2">
    <g>
      <rect class="cls-3" x="8.68" y="-8.68" width="1197.14" height="1214.51" transform="translate(1205.83 -8.68) rotate(90)"/>
      <g>
        <rect class="cls-5" x="58.09" y="58.09" width="528.06" height="528.06"/>
        <g>
          <path class="cls-2" d="M586.15,586.15H58.09c25.03-60.94,91.92-66.22,164.98-90.14,31.93-10.44,37.69-39.24,42.88-72.31.37-2.29.7-4.54,1-6.77,4.24-30.4,3.89-53.87,3.89-53.87h102.56s-.4,27.03,4.89,60.64c.3,1.92.6,3.81.91,5.71,5.04,30.64,11.89,56.76,41.97,66.6,73.05,23.92,139.95,29.19,164.98,90.14Z"/>
          <path class="cls-6" d="M586.15,586.15H58.09c25.04-60.95,91.93-66.22,164.98-90.14,3.47-1.13,6.63-2.49,9.51-4.04,18.04,39.8,51.82,66.6,90.5,66.6s72-26.43,90.14-65.8c2.44,1.23,5.1,2.31,7.96,3.24,73.05,23.92,139.94,29.19,164.98,90.14Z"/>
          <path class="cls-1" d="M406.17,336.18c-93.55-15-168.79-6.3-172.84-6.3-10.21-37.17-18.3-82.79-15.68-121.24,0-18.72,10.04-34.45,25.97-45.85-1.86-.4-3.42-.86-4.6-1.26-1.05-.35-1.2-1.8-.22-2.34,32.2-17.95,69.82-16.51,69.82-16.51,0,.03,0,.05.02.08h.12s-.1-.07-.13-.08c-2.84-1.95-4.94-3.96-6.33-5.5-.95-1.05-.18-2.71,1.23-2.69,49.67.22,83.5,28.19,84.98,29.44t.02.02l.03.02c9.14-5.42,31.14.8,34.76,38.02,4.41,45.27-1.51,91.5-17.14,134.21Z"/>
          <g>
            <path class="cls-4" d="M404.73,305.66c5.66-5.47,13.24-11.18,19.61-5.79,6.11,5.18,1.9,14.17-.3,19.38-11.4,27.01-5.39,39.7-12.85,43.74-5.34,2.89-10.32-1.98-13.96-6.38,4.18-16.31,7.66-34.11,7.51-50.95Z"/>
            <path class="cls-4" d="M237.55,305.66c-5.66-5.47-13.24-11.18-19.61-5.79-6.11,5.18-1.9,14.17.3,19.38,11.4,27.01,5.39,39.7,12.85,43.74,5.34,2.89,10.33-1.98,13.96-6.38-4.18-16.31-7.66-34.11-7.51-50.95Z"/>
          </g>
          <path class="cls-5" d="M379.2,429.41c-11.55,14.81-16.38,19.77-26.65,23.66-15.34,5.82-32.8,6.26-49.31,0-12.73-4.83-17.1-11.28-36.3-36.14,4.24-30.4,3.89-53.87,3.89-53.87h102.56s-.4,27.03,4.89,60.64c.3,1.92.6,3.81.91,5.71Z"/>
          <path class="cls-4" d="M411.55,306.28c-.55,8.03-1.6,16.44-3.24,25.54-6.37,35.09-7.18,51.84-22.69,71.83-22.24,28.64-26.35,35.56-39.82,40.7-15.34,5.82-32.8,6.25-49.32,0-13.47-5.14-17.56-12.05-39.82-40.7-15.51-20-16.33-36.74-22.69-71.83-1.66-9.13-2.69-17.54-3.24-25.59,2.66,4.51,4.75,9.33,6.13,14.23-13.14-110.27,16.98-112.24,52.89-105.57,20.76,3.85,42.02,3.85,62.78,0,35.92-6.67,66.04-4.7,52.89,105.57,1.38-4.89,3.46-9.69,6.12-14.18Z"/>
          <path class="cls-1" d="M414.69,298.53c-6.37,2.49-10.26,14.48-11.8,20.33,4.12-18.19,5.64-39.45,5.64-39.45l6.17,19.12Z"/>
          <path class="cls-1" d="M227.6,298.53c6.37,2.49,10.26,14.48,11.8,20.33-4.12-18.19-5.64-39.45-5.64-39.45l-6.17,19.12Z"/>
        </g>
      </g>
      <g>
        <rect class="cls-5" x="610.99" y="610.99" width="528.06" height="528.06"/>
        <g>
          <path class="cls-1" d="M755.6,960.73c-104.45-89.46,29.8-354.31,146.71-268.56,15.4-17.56,49.61-17.14,75.57,13.1,27.02,31.47,50.41,99.69,56.34,143.49,23.44,172.97-212.92,168.23-278.61,111.97Z"/>
          <path class="cls-2" d="M1106.58,1139.05h-463.12c33.52-54.83,12.41-41.8,140.2-82.76,34.25-10.98,46.86-39.92,49.84-73.88,1.3-14.83.76-30.61-.62-46.26h84.29c-1.83,20.68-2.18,41.56,1.22,60.18,5.09,27.79,18.53,50.52,47.98,59.96,127.8,40.97,106.68,27.94,140.21,82.76Z"/>
          <path class="cls-6" d="M1106.58,1139.05h-463.12c33.51-54.83,12.42-41.79,140.19-82.76,1.7-.55,3.34-1.13,4.94-1.78,22.13,44.87,53.53,72.88,88.36,72.88s65.67-27.5,87.78-71.67c.55.2,1.1.38,1.65.57,127.79,40.96,106.68,27.93,140.21,82.76Z"/>
          <g>
            <path class="cls-4" d="M955.94,860.78c4.97-5.56,11.7-11.46,17.86-6.58,5.91,4.69,2.46,13.57.68,18.71-9.21,26.63-3.02,38.56-9.72,42.84-4.79,3.06-9.65-1.39-13.24-5.45,3.06-15.94,5.4-33.29,4.43-49.52Z"/>
            <path class="cls-4" d="M794.1,860.78c-4.97-5.56-11.7-11.46-17.86-6.58-5.91,4.69-2.46,13.57-.68,18.71,9.21,26.63,3.02,38.56,9.72,42.84,4.79,3.06,9.65-1.39,13.24-5.45-3.06-15.94-5.4-33.29-4.43-49.52Z"/>
          </g>
          <path class="cls-5" d="M918.39,996.33c-10.49,9.53-23.58,14.18-36.61,14.18-16.4,0-32.86-7.33-44.13-22.49-1.45-1.94-2.83-3.81-4.15-5.61,1.3-14.83.76-30.61-.62-46.26h84.29c-1.83,20.68-2.18,41.56,1.22,60.18Z"/>
          <path class="cls-4" d="M963.72,817.16c-7.28,110.54-1.8,104.5-44.57,162.11-11.27,15.17-27.75,22.5-44.14,22.5s-32.87-7.33-44.14-22.5c-42.76-57.61-37.28-51.57-44.57-162.11-3.73-57.68,36.56-98.26,88.7-98.26s92.43,40.58,88.7,98.26Z"/>
          <path class="cls-1" d="M968.84,846.39c3.4,8.47,3.18,5.41-1.19,6.17-6.68,1.16-10.12,9.78-11.75,16.37,8.81-42.09-52.98-79.88-57.07-125.05-.03-.37-.42-.57-.73-.42-87.59,43.02-51.52,163.27-137.32,197.65,12.75-64.77-32.15-134.64,8.16-194.06,33.73-49.67,120.48-57.47,171.61-28.63,56.11,31.65,61.24,95.39,28.28,127.93,0,0,0,.02,0,.02Z"/>
        </g>
      </g>
      <g>
        <rect class="cls-5" x="610.99" y="58.09" width="528.06" height="528.06"/>
        <g>
          <path class="cls-1" d="M946.81,385.79h-143.65s-44.59-75.46-40.88-155.23l225.26-.65c3.69,79.76-40.73,155.87-40.73,155.87Z"/>
          <path class="cls-2" d="M1106.58,586.15h-463.12c33.52-54.83,12.41-41.8,140.2-82.76,34.25-10.98,46.86-39.92,49.84-73.88,1.3-14.83.76-30.61-.62-46.26h84.29c-1.83,20.68-2.18,41.56,1.22,60.18,5.09,27.79,18.53,50.52,47.98,59.96,127.8,40.97,106.68,27.94,140.21,82.76Z"/>
          <path class="cls-3" d="M1106.58,586.15h-463.12c33.51-54.83,12.42-41.79,140.19-82.76,1.7-.55,3.34-1.13,4.94-1.78,22.13,44.87,53.53,72.88,88.36,72.88s65.67-27.5,87.78-71.67c.55.2,1.1.38,1.65.57,127.79,40.96,106.68,27.93,140.21,82.76Z"/>
          <g>
            <path class="cls-4" d="M955.94,307.88c4.97-5.56,11.7-11.46,17.86-6.58,5.91,4.69,2.46,13.57.68,18.71-9.21,26.63-3.02,38.56-9.72,42.84-4.79,3.06-9.65-1.39-13.24-5.45,3.06-15.94,5.4-33.29,4.43-49.52Z"/>
            <path class="cls-4" d="M794.1,307.88c-4.97-5.56-11.7-11.46-17.86-6.58-5.91,4.69-2.46,13.57-.68,18.71,9.21,26.63,3.02,38.56,9.72,42.84,4.79,3.06,9.65-1.39,13.24-5.45-3.06-15.94-5.4-33.29-4.43-49.52Z"/>
          </g>
          <path class="cls-5" d="M918.39,443.43c-10.49,9.53-23.58,14.18-36.61,14.18-16.4,0-32.86-7.33-44.13-22.49-1.45-1.94-2.83-3.81-4.15-5.61,1.3-14.83.76-30.61-.62-46.26h84.29c-1.83,20.68-2.18,41.56,1.22,60.18Z"/>
          <path class="cls-4" d="M963.72,264.26c-7.28,110.54-1.8,104.5-44.57,162.11-11.27,15.17-27.75,22.5-44.14,22.5s-32.87-7.33-44.14-22.5c-42.76-57.61-37.28-51.57-44.57-162.11-3.73-57.68,36.56-98.26,88.7-98.26s92.43,40.58,88.7,98.26Z"/>
          <path class="cls-1" d="M966.77,295.39c6.49,10.82-6.63-5.85-11.12,33.27,6.15-72.06-55.45-41.03-117.15-96.9-44.57,22.28-44.62,64.8-44.62,96.34-4.37-36.44-17.7-22.59-11.2-33.17-15.06-21.41-48.21-83.24,25.7-135.21,80.01-16.46,49.41-17.26,133.28,0,74,52.03,40.31,114.23,25.12,135.67Z"/>
          <ellipse class="cls-1" cx="875.02" cy="142.26" rx="78.97" ry="64.84"/>
        </g>
      </g>
      <g>
        <rect class="cls-5" x="58.09" y="610.99" width="528.06" height="528.06"/>
        <g>
          <path class="cls-1" d="M220.75,857.96c-1.16-51.72-19.17-77.84-16.07-95.93,2.09-12.2,21.74-28.35,34.06-29.61-4.15-37.08,4.62-38.93,29.37-41.49,60.38-6.26,84.66-13.32,108.92-.84,24.25,12.47,59.61,63.18,61.89,85.26,2.97,28.75-23.08,64.51-17.83,92.93-66.51,3.4-134.66.69-200.34-10.33Z"/>
          <path class="cls-2" d="M586.15,1139.05H58.09c25.03-60.94,91.92-66.22,164.98-90.14,31.93-10.44,37.69-39.24,42.88-72.31.37-2.29.7-4.54,1-6.77,4.24-30.4,3.89-53.87,3.89-53.87h102.56s-.4,27.03,4.89,60.64c.3,1.92.6,3.81.91,5.71,5.04,30.64,11.89,56.77,41.97,66.6,73.05,23.92,139.95,29.19,164.98,90.14Z"/>
          <path class="cls-3" d="M586.15,1139.05H58.09c25.04-60.95,91.93-66.22,164.98-90.14,3.47-1.13,6.63-2.49,9.51-4.04,18.04,39.8,51.82,66.6,90.5,66.6s72-26.43,90.14-65.8c2.44,1.23,5.1,2.31,7.96,3.24,73.05,23.92,139.94,29.19,164.98,90.14Z"/>
          <g>
            <path class="cls-4" d="M404.73,858.56c5.66-5.47,13.24-11.18,19.61-5.79,6.11,5.18,1.9,14.17-.3,19.38-11.4,27.01-5.39,39.7-12.85,43.74-5.34,2.89-10.32-1.98-13.96-6.38,4.18-16.31,7.66-34.11,7.51-50.95Z"/>
            <path class="cls-4" d="M237.55,858.56c-5.66-5.47-13.24-11.18-19.61-5.79-6.11,5.18-1.9,14.17.3,19.38,11.4,27.01,5.39,39.7,12.85,43.74,5.34,2.89,10.33-1.98,13.96-6.38-4.18-16.31-7.66-34.11-7.51-50.95Z"/>
          </g>
          <path class="cls-5" d="M379.2,982.31c-11.55,14.81-16.38,19.77-26.65,23.66-15.34,5.82-32.8,6.26-49.31,0-12.73-4.83-17.1-11.28-36.3-36.14,4.24-30.4,3.89-53.87,3.89-53.87h102.56s-.4,27.03,4.89,60.64c.3,1.92.6,3.81.91,5.71Z"/>
          <path class="cls-4" d="M408.31,884.72c-6.37,35.09-7.18,51.84-22.69,71.83-22.25,28.65-26.35,35.57-39.82,40.69-15.34,5.82-32.81,6.26-49.31,0-13.47-5.13-17.57-12.04-39.82-40.69-15.51-19.99-16.32-36.74-22.69-71.83-7.7-42.41-2.1-69.7,3.75-114.71,8.91-68.81,157.95-68.7,166.84,0,5.85,45.02,11.44,72.31,3.75,114.71Z"/>
          <path class="cls-1" d="M248.87,805.06c-.81,16.6-17.87,37.19-9.18,63.74-8.24-23.19-21.13-15.45-18.35-18.5.12-8.81,3.52-18.69,3.51-27.45-.03-20.91.07-42.54,8.48-61.69,7.63-17.37,21.41-32.77,38.85-40.18,5,3.72,10.47,7.4,15.46,11.14-57.84,33.46-37.8,53.1-38.77,72.95Z"/>
          <path class="cls-1" d="M392.87,805.06c.81,16.6,17.87,37.19,9.18,63.74,8.24-23.19,21.13-15.45,18.35-18.5-.12-8.81-3.52-18.69-3.51-27.45.03-20.91-.07-42.54-8.48-61.69-7.63-17.37-21.41-32.77-38.85-40.18-5,3.72-10.47,7.4-15.46,11.14,57.84,33.46,37.8,53.1,38.77,72.95Z"/>
          <path class="cls-1" d="M351.7,799.42c3.97,1.78,8.49,2.79,12.9,2.71,9.09-.17-49.14,30.94-74.29-5.69-8.24-12.03-9.59-30.46-17.17-44.44,2.24,8.3.38,15.31-.3,13.33-4.87-14.26-30.24-13.86-34.1-29.52,2.23-1.48,4.56-3.04,6.95-4.34,16.79-37.89,100.38-34.96,130.42-20.1,20.8,10.31,38.88,39.25,43.46,62.01-25.98-4.49-42.43,28.74-67.86,26.03Z"/>
          <path class="cls-1" d="M420.93,850.91c-.19-.06-.15.03-.15-.18l.15.18Z"/>
        </g>
      </g>
    </g>
  </g>
</svg>