<?xml version="1.0" encoding="UTF-8"?>
<svg id="Layer_2" data-name="Layer 2" xmlns="http://www.w3.org/2000/svg" xmlns:xlink="http://www.w3.org/1999/xlink" viewBox="0 0 2249.88 2249.84">
  <defs>
    <style>
      .cls-1 {
        fill: none;
      }

      .cls-2 {
        fill: #fff;
      }

      .cls-3 {
        clip-path: url(#clippath);
      }
    </style>
    <clipPath id="clippath">
      <rect class="cls-1" width="2249.88" height="2249.84"/>
    </clipPath>
  </defs>
  <g id="Layer_1-2" data-name="Layer 1">
    <g>
      <g class="cls-3">
        <rect class="cls-2" x="-.12" y="-.16" width="2250" height="2250"/>
      </g>
      <path d="M1178.09,608.02c-18.84,0-37.75.8-56.61,2.23-50.31,4.78-100.43,16.94-148.7,36.93-181.95,75.34-304.34,247.1-317.84,441.52l-68.07-76.85c-5.12-5.79-13.95-6.36-19.78-1.27v.04c-5.78,5.13-6.33,13.97-1.23,19.78l90.85,102.8c2.67,3.43,6.78,5.43,11.12,5.42.85.08,1.7.08,2.55,0,.38.02.77.02,1.16,0,.08-.03.16-.05.24-.08.52-.23,1.03-.5,1.52-.8.47-.24.93-.51,1.36-.8.1,0,.21,0,.32,0,.11,0,.21,0,.32,0,.34-.25.67-.52.99-.8l110.71-83.8c2.97-2.27,4.92-5.62,5.42-9.32.5-3.7-.5-7.45-2.78-10.42-4.71-6.11-13.46-7.28-19.61-2.63l-87.31,66c11-185.91,127.11-350.52,300.78-422.45,182.65-75.64,392.79-33.87,532.59,105.89,139.8,139.75,181.59,349.82,105.93,532.42-75.66,182.6-253.76,301.65-451.46,301.65-7.73.03-13.98,6.29-14.01,14.01-.03,3.74,1.43,7.34,4.06,10,2.63,2.66,6.21,4.16,9.95,4.17,208.99,0,397.48-126.03,477.45-319.07,79.98-193.04,35.79-415.2-111.99-562.94-96.98-96.95-226.06-149.35-357.93-151.3l-.02-.32ZM1170.55,811.77c172.94,0,312.85,139.94,312.85,312.89,0,172.95-139.9,312.85-312.85,312.85s-312.85-139.9-312.85-312.85c0-172.95,139.91-312.89,312.85-312.89h0ZM1170.55,889.36c-3.74.02-7.32,1.52-9.95,4.17-2.63,2.66-4.09,6.25-4.06,9.99v221.14c0,3.38,1.21,6.64,3.42,9.2l106.05,121.29c2.44,2.84,5.92,4.59,9.65,4.86,3.73.27,7.43-.96,10.25-3.42,2.83-2.46,4.56-5.96,4.8-9.71.24-3.74-1.03-7.43-3.52-10.23l-102.64-117.26v-215.87c.03-3.74-1.43-7.34-4.06-9.99-2.63-2.66-6.21-4.16-9.95-4.18h0Z"/>
    </g>
  </g>
</svg>