<?xml version="1.0" encoding="UTF-8"?>
<svg id="Layer_2" data-name="Layer 2" xmlns="http://www.w3.org/2000/svg" viewBox="0 0 770.81 888.62">
  <defs>
    <style>
      .cls-1, .cls-2 {
        fill: #363636;
      }

      .cls-2, .cls-3, .cls-4, .cls-5 {
        stroke-linecap: round;
        stroke-miterlimit: 10;
        stroke-width: 24.82px;
      }

      .cls-2, .cls-4 {
        stroke: #363636;
      }

      .cls-6 {
        fill: #fff;
      }

      .cls-3 {
        stroke: #fff;
      }

      .cls-3, .cls-4, .cls-5 {
        fill: none;
      }

      .cls-5 {
        stroke: #dedede;
      }
    </style>
  </defs>
  <g id="Layer_2-2" data-name="Layer 2">
    <g>
      <g>
        <path class="cls-2" d="M103.98,12.41H33.3c-11.54,0-20.89,9.35-20.89,20.89v639.74c0,11.54,9.35,20.89,20.89,20.89h505.3c11.54,0,20.89-9.35,20.89-20.89V33.3c0-11.54-9.35-20.89-20.89-20.89H103.98"/>
        <g>
          <rect class="cls-6" x="239.35" y="217.47" width="84.97" height="140.03" rx="11.41" ry="11.41"/>
          <rect class="cls-6" x="111.65" y="266.66" width="84.97" height="90.85" rx="11.41" ry="11.41"/>
          <rect class="cls-6" x="367.05" y="134.6" width="84.97" height="222.9" rx="11.41" ry="11.41"/>
        </g>
      </g>
      <g>
        <line class="cls-3" x1="112.46" y1="459.16" x2="459.44" y2="459.16"/>
        <line class="cls-3" x1="112.46" y1="508.53" x2="459.44" y2="508.53"/>
        <line class="cls-3" x1="112.46" y1="557.91" x2="368.34" y2="557.91"/>
      </g>
      <g>
        <line class="cls-5" x1="56.1" y1="876.21" x2="341.12" y2="876.21"/>
        <line class="cls-5" x1="508.71" y1="876.21" x2="407.3" y2="876.21"/>
      </g>
      <g>
        <g>
          <path class="cls-6" d="M703.87,734.12c-4.98,0-9.35-1.73-12.64-5.02l-163.99-163.99,15.66-15.66-14.16-14.16c-27.9,20.9-62.03,32.32-97.16,32.32-43.35,0-84.07-16.84-114.64-47.42-30.58-30.57-47.42-71.29-47.42-114.64s16.84-84.07,47.42-114.64c30.57-30.57,71.29-47.41,114.64-47.41s84.07,16.84,114.64,47.41c30.62,30.62,47.49,71.34,47.49,114.64,0,35.13-11.43,69.27-32.36,97.16l14.14,14.15,15.66-15.66,163.98,163.98c3.27,3.27,7.95,10.69,2.59,23.64-7.24,17.48-34.83,45.31-53.85,45.31Z"/>
          <path class="cls-6" d="M431.58,254.13c38.79,0,77.59,14.76,107.12,44.3,28.62,28.62,44.37,66.66,44.37,107.12,0,36.3-12.71,70.62-35.98,97.96l28.39,28.39,15.66-15.66,156.46,156.46c10.79,10.79-26.85,50.78-43.74,50.78-2.06,0-3.81-.6-5.13-1.91l-156.46-156.46,15.66-15.66-28.4-28.4c-28.16,23.92-63.05,35.92-97.96,35.92-38.8,0-77.58-14.76-107.12-44.3-59.07-59.06-59.07-155.17,0-214.24h0c29.53-29.53,68.32-44.3,107.12-44.3M431.58,232.85c-46.19,0-89.58,17.94-122.16,50.53-32.59,32.59-50.53,75.97-50.53,122.17s17.95,89.58,50.53,122.16c32.59,32.58,75.97,50.53,122.16,50.53,34.31,0,67.74-10.22,95.98-29.09l.3.3-.62.62-15.04,15.04,15.04,15.04,156.46,156.46c5.25,5.25,12.42,8.14,20.17,8.14,24.47,0,55.03-30.99,63.68-51.88,8.02-19.36-.75-31.08-4.9-35.23l-156.46-156.46-15.04-15.04-15.04,15.04-.62.62-.28-.28c18.9-28.24,29.14-61.67,29.14-95.99,0-46.15-17.97-89.53-50.61-122.17-32.59-32.58-75.97-50.53-122.16-50.53h0Z"/>
        </g>
        <g>
          <line class="cls-4" x1="528.43" y1="502.39" x2="591.79" y2="565.75"/>
          <g>
            <path class="cls-6" d="M559.83,565.11l31.32-31.32,145.62,145.63c-2.83,9.15-22.17,28.5-31.32,31.32l-145.63-145.63Z"/>
            <path class="cls-1" d="M591.16,516.24l-48.87,48.87,156.46,156.46c1.32,1.32,3.07,1.91,5.13,1.91,16.89,0,54.53-39.99,43.74-50.78l-156.46-156.46h0Z"/>
          </g>
          <path class="cls-2" d="M334.48,308.44c53.75-53.75,140.89-53.75,194.63,0,53.75,53.75,53.75,140.89,0,194.63-53.75,53.75-140.89,53.75-194.63,0s-53.75-140.89,0-194.63Z"/>
        </g>
        <polyline class="cls-3" points="373.11 411.6 420.11 452.3 496.09 367.87"/>
      </g>
    </g>
  </g>
</svg>