<?xml version="1.0" encoding="UTF-8"?>
<svg id="Layer_2" data-name="Layer 2" xmlns="http://www.w3.org/2000/svg" viewBox="0 0 851.02 1247.58">
  <defs>
    <style>
      .cls-1 {
        fill: #231f20;
        fill-rule: evenodd;
      }
    </style>
  </defs>
  <g id="Layer_1-2" data-name="Layer 1">
    <path class="cls-1" d="M221.44,596.29h251.8c6.37,0,11.58,5.21,11.58,11.58h0c0,6.37-5.21,11.58-11.58,11.58h-251.8c-6.37,0-11.58-5.21-11.58-11.58h0c0-6.37,5.21-11.58,11.58-11.58h0ZM425.51,46.39c5.66,0,10.8,2.3,14.51,6.02l.02.02c3.72,3.72,6.02,8.85,6.02,14.51s-2.3,10.8-6.02,14.51l-.02.02c-3.72,3.72-8.85,6.02-14.51,6.02s-10.79-2.3-14.51-6.02l-.02-.02c-3.72-3.72-6.02-8.85-6.02-14.51s2.3-10.79,6.02-14.51l.02-.02c3.72-3.72,8.85-6.02,14.51-6.02h0ZM398.95,331.8h53.12c4.48,0,8.54,1.82,11.47,4.76,2.93,2.93,4.76,7,4.76,11.47v53.86h53.86c4.48,0,8.54,1.82,11.47,4.76,2.93,2.93,4.76,7,4.76,11.47v53.12c0,4.48-1.82,8.54-4.76,11.47-2.93,2.93-7,4.76-11.47,4.76h-53.86v53.86c0,4.48-1.82,8.54-4.76,11.47s-7,4.76-11.47,4.76h-53.12c-4.48,0-8.54-1.82-11.47-4.76-2.93-2.93-4.76-7-4.76-11.47v-53.86h-53.86c-4.48,0-8.54-1.82-11.47-4.76-2.93-2.93-4.76-7-4.76-11.47v-53.12c0-4.48,1.82-8.54,4.76-11.47s7-4.76,11.47-4.76h53.86v-53.86c0-4.48,1.82-8.54,4.76-11.47,2.93-2.93,7-4.76,11.47-4.76h0ZM44.91,182.36h186.66v-31.84c0-13.54,5.53-25.85,14.45-34.76,8.91-8.91,21.22-14.45,34.76-14.45h78.88v-35.46c0-18.12,7.41-34.59,19.33-46.52,11.93-11.93,28.4-19.33,46.52-19.33h0c18.12,0,34.59,7.41,46.52,19.33,11.93,11.93,19.33,28.39,19.33,46.52v35.46h78.88c13.55,0,25.85,5.53,34.76,14.45,8.91,8.91,14.45,21.22,14.45,34.76v31.84h186.66c12.36,0,23.6,5.05,31.73,13.18,8.13,8.13,13.18,19.37,13.18,31.73v975.4c0,12.36-5.05,23.6-13.18,31.73-8.13,8.13-19.37,13.18-31.73,13.18H44.91c-12.36,0-23.6-5.05-31.73-13.18-8.13-8.13-13.18-19.37-13.18-31.73V227.27c0-12.36,5.05-23.6,13.18-31.73,8.13-8.13,19.37-13.18,31.73-13.18h0ZM231.57,205.51H44.91c-5.97,0-11.41,2.45-15.36,6.4-3.95,3.95-6.4,9.39-6.4,15.36v975.4c0,5.97,2.45,11.41,6.4,15.36,3.95,3.95,9.39,6.4,15.36,6.4h761.2c5.97,0,11.41-2.45,15.36-6.4,3.95-3.95,6.4-9.39,6.4-15.36V227.27c0-5.97-2.45-11.41-6.4-15.36-3.95-3.95-9.39-6.4-15.36-6.4h-186.66v31.84h0s-11.58,0-11.58,0H231.57s0,0,0,0v-31.84h0ZM123.02,274.99h604.98c8.37,0,15.97,3.42,21.47,8.92,5.5,5.5,8.92,13.1,8.92,21.48v819.18c0,8.37-3.42,15.97-8.92,21.47-5.5,5.5-13.1,8.92-21.47,8.92H242.76l-7.78-3.08-63.71-58.26-74.85-68.44-3.8-3.47V305.38c0-8.37,3.42-15.97,8.92-21.48,5.5-5.5,13.11-8.92,21.47-8.92h0ZM728,298.14H123.02c-1.98,0-3.78.82-5.1,2.14s-2.14,3.12-2.14,5.1v699.06h146.17v127.36h466.05c1.98,0,3.78-.82,5.1-2.14,1.32-1.32,2.14-3.12,2.14-5.1V305.38c0-1.98-.82-3.78-2.14-5.1-1.32-1.32-3.12-2.14-5.1-2.14h0ZM186.83,1076.62l51.97,47.52v-96.54h-105.58l53.61,49.02h0ZM371.24,124.47h-90.46c-7.15,0-13.66,2.94-18.39,7.66-4.73,4.73-7.66,11.24-7.66,18.39v63.68h341.57v-63.68c0-7.15-2.94-13.66-7.66-18.39-4.73-4.73-11.24-7.66-18.39-7.66h-102.04v-58.61c0-11.73-4.81-22.4-12.55-30.14-7.74-7.74-18.42-12.55-30.14-12.55h0c-11.73,0-22.4,4.81-30.14,12.55-7.74,7.74-12.55,18.42-12.55,30.14v58.61h-11.58ZM445.15,354.96h-39.27v70.1h-70.1v39.27h70.1v70.1h39.27v-70.1h70.1v-39.27h-70.1v-70.1h0ZM554.29,596.29h75.3c6.37,0,11.58,5.21,11.58,11.58h0c0,6.37-5.21,11.58-11.58,11.58h-75.3c-6.37,0-11.58-5.21-11.58-11.58h0c0-6.37,5.21-11.58,11.58-11.58h0ZM221.44,919.05h243.84c6.37,0,11.58,5.21,11.58,11.58h0c0,6.37-5.21,11.58-11.58,11.58h-243.84c-6.37,0-11.58-5.21-11.58-11.58h0c0-6.37,5.21-11.58,11.58-11.58h0ZM221.44,811.46h408.14c6.37,0,11.58,5.21,11.58,11.58h0c0,6.37-5.21,11.58-11.58,11.58H221.44c-6.37,0-11.58-5.21-11.58-11.58h0c0-6.37,5.21-11.58,11.58-11.58h0ZM221.44,703.88h408.14c6.37,0,11.58,5.21,11.58,11.58h0c0,6.37-5.21,11.58-11.58,11.58H221.44c-6.37,0-11.58-5.21-11.58-11.58h0c0-6.37,5.21-11.58,11.58-11.58h0Z"/>
  </g>
</svg>