<?xml version="1.0" encoding="UTF-8"?>
<svg id="Layer_2" data-name="Layer 2" xmlns="http://www.w3.org/2000/svg" viewBox="0 0 520 497.14">
  <defs>
    <style>
      .cls-1 {
        fill: none;
        stroke: #414143;
        stroke-linecap: round;
        stroke-linejoin: round;
        stroke-width: 20px;
      }
    </style>
  </defs>
  <g id="Layer_1-2" data-name="Layer 1">
    <g>
      <g>
        <path class="cls-1" d="M419.05,169.05v181.9c0,37.61-30.49,68.1-68.1,68.1h-45.48v68.1l-136.43-68.1h-90.95c-37.61,0-68.1-30.49-68.1-68.1v-181.9c0-37.61,30.49-68.1,68.1-68.1h272.86c37.61,0,68.1,30.49,68.1,68.1h0Z"/>
        <path class="cls-1" d="M419.05,328.1h23.81c37.05-.52,66.89-30.57,67.14-67.62V78.1c0-37.61-30.49-68.1-68.1-68.1h0s-272.86,0-272.86,0c-37.61,0-68.1,30.49-68.1,68.1h0v23.81"/>
      </g>
      <polygon class="cls-1" points="288.45 238.16 288.45 281.84 236.37 281.84 236.37 333.93 192.68 333.93 192.68 281.84 140.6 281.84 140.6 238.16 192.68 238.16 192.68 186.07 236.37 186.07 236.37 238.16 288.45 238.16"/>
    </g>
  </g>
</svg>