<?xml version="1.0" encoding="UTF-8"?>
<svg id="Layer_2" data-name="Layer 2" xmlns="http://www.w3.org/2000/svg" viewBox="0 0 653.04 800">
  <defs>
    <style>
      .cls-1 {
        fill: #2e3369;
      }
    </style>
  </defs>
  <g id="Layer_1-2" data-name="Layer 1">
    <g>
      <g>
        <path class="cls-1" d="M326.52,800c-.77,0-1.55-.08-2.31-.25h0s-.04-.01-.06-.02h0s-.04-.01-.07-.02h0s-.02,0-.03,0h0s-.02,0-.03-.01h0s-.03,0-.03,0c-.02-.01-.03-.02-.03-.01-.01,0-.02,0-.03,0,0,0-.01,0-.03-.01h0s-.02,0-.03,0c0,0-.02,0-.03-.01-.01,0-.02,0-.04,0,0,0,0,0,0,0-.01,0-.02,0-.03,0h0s-.02,0-.04-.01c-.02-.02-.02,0-.03-.01-.01,0-.02,0-.03-.01-.01,0-.03-.01-.03,0-.03-.02-.03,0-.04-.01-.01,0-.02-.01-.03-.01s-.02,0-.03-.01c-.01,0-.02,0-.04-.01h0s-.02,0-.03,0h0c-.4-.12-.79-.26-1.17-.42l-11.66-4.91C237.75,764.96,0,656.83,0,494.22V134.1c0-5.58,4.24-10.24,9.8-10.76C122.5,112.73,229.76,70.85,319.97,2.21c3.86-2.95,9.23-2.95,13.09,0,90.22,68.64,197.48,110.53,310.18,121.13,5.55.52,9.8,5.18,9.8,10.76v360.12c0,162.61-237.75,270.74-310.61,300l-11.68,4.91c-.22.09-.44.18-.67.26,0,0-.01,0-.03.01h0s-.04.02-.03.01c-.02.01-.03,0-.03.01-.01,0-.03.01-.04.01h0s-.02.01-.03.01h0c-1.1.36-2.25.55-3.39.55ZM326.52,777.25s9.35-3.69,10.13-4.01c72.24-29.27,294.76-131.56,294.76-279.02V143.87c-110.43-12.14-215.48-53.32-304.9-119.54C237.1,90.55,132.05,131.73,21.62,143.87v350.35c0,147.92,223.92,250.38,295.44,279.29.55.22,9.46,3.74,9.46,3.74Z"/>
        <path class="cls-1" d="M326.52,720.58c-1.44,0-2.88-.29-4.23-.86-114.85-48.78-248.96-137.1-248.96-225.5V197.57c0-5.18,3.67-9.63,8.76-10.62,85.24-16.48,165.5-48.7,238.58-95.77,3.57-2.29,8.14-2.29,11.71,0,73.08,47.06,153.35,79.29,238.59,95.77,5.08.99,8.76,5.44,8.76,10.62v296.65c0,88.39-134.12,176.71-248.97,225.5-1.35.58-2.79.86-4.23.86ZM94.95,206.44v287.78c0,71.96,115.6,153.76,231.57,203.78,115.97-50.03,231.58-131.82,231.58-203.78V206.44c-82.43-17.02-160.27-48.39-231.58-93.34-71.31,44.95-149.14,76.32-231.57,93.34Z"/>
      </g>
      <path class="cls-1" d="M305.82,470.89c-2.77,0-5.53-1.06-7.64-3.17l-79.01-79.03c-4.22-4.22-4.22-11.07,0-15.29,4.22-4.22,11.06-4.22,15.29,0l71.38,71.39,112.76-112.53c4.23-4.22,11.08-4.21,15.29.02,4.22,4.23,4.21,11.07-.02,15.29l-120.41,120.15c-2.11,2.11-4.88,3.16-7.64,3.16Z"/>
    </g>
  </g>
</svg>