<?xml version="1.0" encoding="UTF-8"?>
<svg id="Layer_2" data-name="Layer 2" xmlns="http://www.w3.org/2000/svg" viewBox="0 0 1696.25 2100">
  <defs>
    <style>
      .cls-1 {
        fill: #111;
      }
    </style>
  </defs>
  <g id="katman_1" data-name="katman 1">
    <path class="cls-1" d="M581.08,1024.73h174.99v174.99c0,12.6,10.23,22.83,22.83,22.83h138.47c12.6,0,22.83-10.23,22.83-22.83v-174.99h174.96c12.6,0,22.83-10.23,22.83-22.83v-138.47c0-12.6-10.23-22.83-22.83-22.83h-174.96v-174.96c0-12.6-10.23-22.83-22.83-22.83h-138.47c-12.6,0-22.83,10.23-22.83,22.83v174.96h-174.99c-12.6,0-22.83,10.23-22.83,22.83v138.47c0,12.6,10.23,22.83,22.83,22.83ZM603.92,886.26h174.99c12.6,0,22.83-10.23,22.83-22.83v-174.96h92.8v174.96c0,12.6,10.23,22.83,22.83,22.83h174.96v92.8h-174.96c-12.6,0-22.83,10.23-22.83,22.83v174.99h-92.8v-174.99c0-12.6-10.23-22.83-22.83-22.83h-174.99v-92.8Z"/>
    <path class="cls-1" d="M1673.42,166.26h-610.04C1040.56,71.13,955.56,0,853.78,0s-186.78,71.13-209.59,166.26H22.83c-12.6,0-22.83,10.23-22.83,22.83v1888.08c0,12.6,10.23,22.83,22.83,22.83h1650.58c12.6,0,22.83-10.23,22.83-22.83V189.09c0-12.6-10.23-22.83-22.83-22.83ZM853.78,45.66c93.98,0,170.44,76.75,170.44,171.06,0,4.52.14,8.59-.78,13.1-.18.91.07,1.78,0,2.69-.13,1.57-.21,3.08,0,4.68.2,1.59.65,3.03,1.17,4.52.3.87.26,1.77.68,2.61.23.46.65.74.9,1.17.8,1.41,1.82,2.59,2.9,3.8.93,1.04,1.78,2.07,2.87,2.91,1.13.89,2.4,1.49,3.71,2.15,1.4.71,2.76,1.38,4.27,1.79.49.13.87.48,1.38.58,1.53.31,3.04.45,4.54.45.13,0,.23-.13.37-.13,3.24-.05,6.49-.64,9.58-2.15,20.94-10.18,42.51-15.33,64.17-15.33,77.22,0,140.06,62.84,140.06,140.06,0,22.47-6.41,43.89-16.61,63.48H495.75c-10.2-19.59-16.61-41-16.61-63.48,0-77.22,63.12-140.06,140.67-140.06,11.77,0,23.26,1.6,34.25,4.52,4.65,1.76,9.71,2.4,14.67.67,10.92-3.69,17.01-14.06,14.99-24.94-.04-.41-.08-.81-.15-1.22-.15-.63-.02-1.23-.23-1.86,0-94.31,76.47-171.06,170.44-171.06ZM461.93,478.16c.36.56.99.77,1.39,1.29,1.56,2.06,3.4,3.74,5.56,5.17.84.55,1.53,1.2,2.42,1.63,3.03,1.49,6.32,2.5,9.93,2.5h776.73c3.6,0,6.89-1.01,9.92-2.5.89-.43,1.58-1.09,2.42-1.63,2.16-1.43,4-3.11,5.56-5.17.4-.52,1.03-.73,1.39-1.29,9.71-15.31,16.89-31.94,21.68-49.29h162.1v1408.52H235.2V428.87h205.05c4.78,17.34,11.97,33.97,21.68,49.29ZM1650.58,2054.34H45.66V211.93h495.36c-63.33,29.69-107.55,93.42-107.55,167.68,0,1.21.23,2.39.25,3.6h-221.35c-12.6,0-22.83,10.23-22.83,22.83v1454.19c0,12.6,10.23,22.83,22.83,22.83h1271.48c12.6,0,22.83-10.23,22.83-22.83V406.04c0-12.6-10.23-22.83-22.83-22.83h-178.39c.02-1.21.25-2.39.25-3.6,0-74.26-44.08-137.99-107.2-167.68h452.07v1842.41Z"/>
    <path class="cls-1" d="M454.27,1658.83h774.69c12.6,0,22.83-10.23,22.83-22.83s-10.23-22.83-22.83-22.83H454.27c-12.6,0-22.83,10.23-22.83,22.83s10.23,22.83,22.83,22.83Z"/>
    <path class="cls-1" d="M454.27,1454.77h774.69c12.6,0,22.83-10.23,22.83-22.83s-10.23-22.83-22.83-22.83H454.27c-12.6,0-22.83,10.23-22.83,22.83s10.23,22.83,22.83,22.83Z"/>
  </g>
</svg>