<?xml version="1.0" encoding="UTF-8"?>
<svg id="Layer_2" data-name="Layer 2" xmlns="http://www.w3.org/2000/svg" viewBox="0 0 392.31 152.27">
  <defs>
    <style>
      .cls-1 {
        fill: #fff;
        stroke: #000;
      }

      .cls-1, .cls-2 {
        stroke-miterlimit: 10;
      }

      .cls-2 {
        stroke: #fff;
        stroke-width: 4.9px;
      }

      .cls-3 {
        fill: #c23c2b;
      }
    </style>
  </defs>
  <g id="Layer_1-2" data-name="Layer 1">
    <g>
      <rect class="cls-3" x="0" y="0" width="392.31" height="152.27" rx="38.68" ry="38.68"/>
      <g>
        <g>
          <path d="M316.64,111.45c-5.53,0-9.26-1.45-11.2-4.34-1.95-2.89-2.92-7.27-2.92-13.12v-22.79l-287.7,1.63v-10.36l288.2-1.63-.16-15h11.53v15h12.05v10.36h-12.05v22.5c0,2.86.4,4.84,1.2,5.95.81,1.1,1.91,1.65,3.31,1.65s2.96-.38,4.56-1.13c1.6-.76,2.86-1.53,3.77-2.32l2.35,9.97c-1.01.73-2.33,1.36-3.95,1.9-1.62.55-3.25.97-4.9,1.28-1.65.31-3.01.47-4.09.47Z"/>
          <g>
            <line class="cls-2" x1="301.95" y1="66.16" x2="315.45" y2="66.16"/>
            <line class="cls-2" x1="308.7" y1="59.41" x2="308.7" y2="72.91"/>
          </g>
        </g>
        <path class="cls-1" d="M40.61,111.15c-3.58,0-7.03-.73-10.36-2.2-3.32-1.46-6.31-3.68-8.95-6.66-2.65-2.98-4.75-6.77-6.3-11.37-1.54-4.61-2.31-10.03-2.31-16.28,0-7.5,1.3-13.82,3.92-18.97s6.12-9.05,10.51-11.69c4.39-2.65,9.25-3.97,14.57-3.97,3.62,0,6.57.35,8.86,1.04s4.11,1.51,5.48,2.47c1.37.96,2.47,1.83,3.33,2.61l-5.52,10.36c-1.41-1.55-2.88-2.79-4.39-3.73-1.52-.94-3.93-1.41-7.25-1.41s-6.21.97-8.56,2.91c-2.35,1.94-4.14,4.61-5.38,8.02s-1.85,7.29-1.85,11.67c0,8.58,1.44,15.06,4.31,19.41,2.88,4.36,6.34,6.54,10.39,6.54,3.12,0,5.78-.44,7.99-1.33,2.2-.89,3.85-1.89,4.93-3.01l5.43,9.77c-.92.75-2.14,1.59-3.68,2.49-1.53.91-3.52,1.69-5.97,2.34s-5.52.99-9.2.99Z"/>
        <path class="cls-1" d="M77.22,111.35c-3.03,0-5.53-.67-7.52-2.02s-3.47-3.14-4.44-5.38-1.45-4.71-1.45-7.4c0-1.51.39-3.18,1.16-4.98.78-1.81,2.15-3.54,4.12-5.18,1.98-1.64,4.75-2.99,8.34-4.04,3.58-1.05,8.19-1.58,13.81-1.58v-2.27c0-2.43-.59-4.46-1.75-6.07-1.17-1.61-3.51-2.42-7.03-2.42-2.56,0-5.07.43-7.52,1.3-2.45.88-4.25,1.95-5.4,3.23l-3.95-9.47c1.98-1.35,4.62-2.59,7.92-3.73,3.31-1.13,6.99-1.7,11.03-1.7,4.87,0,8.66.74,11.35,2.22,2.69,1.48,4.59,3.58,5.67,6.29s1.63,5.89,1.63,9.55v32.26h-10.56l-.89-7.01c-3.42,5.59-8.25,8.39-14.5,8.39ZM82.45,101.88c1.49,0,3.07-.6,4.76-1.8s3.04-2.74,4.02-4.61v-7.01c-.33-.06-.68-.1-1.06-.1h-1.31c-1.81,0-3.71.2-5.7.61-1.98.41-3.67,1.13-5.05,2.15s-2.07,2.43-2.07,4.24c0,2.37.52,4.04,1.57,5.03s2.67,1.48,4.83,1.48Z"/>
        <path class="cls-1" d="M114.17,109.97v-49.14h11.15l.59,8.68c.53-1.28,1.34-2.65,2.44-4.1,1.1-1.45,2.63-2.67,4.59-3.68,1.95-1,4.48-1.5,7.57-1.5.96,0,1.79.06,2.51.2s1.4.33,2.02.59l-2.76,12.93c-1.05-1.05-2.67-1.58-4.83-1.58-2.54,0-4.61.52-6.22,1.55-1.61,1.04-2.81,2.19-3.58,3.48-.77,1.28-1.16,2.27-1.16,2.96v29.6h-12.33Z"/>
        <path class="cls-1" d="M170.51,111.25c-5.52,0-9.98-1.16-13.37-3.48-3.38-2.32-5.85-5.39-7.4-9.23-1.55-3.83-2.32-8.01-2.32-12.55,0-4.77.88-9.15,2.64-13.15,1.76-3.99,4.34-7.19,7.74-9.6,3.4-2.4,7.58-3.6,12.51-3.6,7.36,0,12.51,2.13,15.44,6.39,2.92,4.26,4.39,10.29,4.39,18.08,0,.69-.02,1.56-.05,2.61-.03,1.06-.09,1.96-.15,2.71h-29.6c.19,3.88,1.29,6.93,3.28,9.13,1.99,2.2,4.98,3.31,8.96,3.31,2.03,0,4.22-.45,6.56-1.36,2.33-.9,4.06-2,5.18-3.28l3.94,9.37c-1.32.89-3.4,1.88-6.24,2.99-2.84,1.1-6.68,1.65-11.52,1.65ZM160.26,81.75h17.36c0-3.45-.31-6.09-.91-7.92-.61-1.83-1.45-3.08-2.5-3.77s-2.25-1.04-3.6-1.04c-3.36,0-5.87,1.24-7.55,3.73-1.68,2.48-2.62,5.48-2.81,9Z"/>
        <path class="cls-1" d="M200.36,109.97V41.19h18.44c4.67,0,8.91.71,12.74,2.12,3.81,1.41,6.86,3.87,9.12,7.38,2.27,3.5,3.4,8.36,3.4,14.58,0,4.51-.85,8.76-2.56,12.76-1.71,3.99-4.4,7.24-8.07,9.74-3.67,2.5-8.41,3.75-14.23,3.75h-6.12v18.45h-12.73ZM218.02,51.16h-4.93v30h5.23c4.34,0,7.6-1.3,9.77-3.9,2.17-2.6,3.25-6.36,3.25-11.3s-.99-8.76-2.96-11.17c-1.97-2.42-5.42-3.63-10.36-3.63Z"/>
        <path class="cls-1" d="M262.37,111.35c-3.03,0-5.53-.67-7.52-2.02s-3.47-3.14-4.44-5.38-1.45-4.71-1.45-7.4c0-1.51.39-3.18,1.16-4.98.78-1.81,2.15-3.54,4.12-5.18,1.98-1.64,4.75-2.99,8.34-4.04,3.58-1.05,8.19-1.58,13.81-1.58v-2.27c0-2.43-.59-4.46-1.75-6.07-1.17-1.61-3.51-2.42-7.03-2.42-2.56,0-5.07.43-7.52,1.3-2.45.88-4.25,1.95-5.4,3.23l-3.95-9.47c1.98-1.35,4.62-2.59,7.92-3.73,3.31-1.13,6.99-1.7,11.03-1.7,4.87,0,8.66.74,11.35,2.22,2.69,1.48,4.59,3.58,5.67,6.29s1.63,5.89,1.63,9.55v32.26h-10.56l-.89-7.01c-3.42,5.59-8.25,8.39-14.5,8.39ZM267.6,101.88c1.49,0,3.07-.6,4.76-1.8s3.04-2.74,4.02-4.61v-7.01c-.33-.06-.68-.1-1.06-.1h-1.31c-1.81,0-3.71.2-5.7.61-1.98.41-3.67,1.13-5.05,2.15s-2.07,2.43-2.07,4.24c0,2.37.52,4.04,1.57,5.03s2.67,1.48,4.83,1.48Z"/>
        <path class="cls-1" d="M338.15,109.97V34.78h11.64v24.86l-.24,7.4c1.32-1.91,3.16-3.62,5.52-5.13,2.37-1.51,5.51-2.27,9.42-2.27,4.94,0,8.62,1.58,11.06,4.74,2.43,3.16,3.65,7.53,3.65,13.12v32.46h-12.63v-31.18c0-2.73-.65-4.94-1.94-6.64-1.3-1.69-3.12-2.54-5.45-2.54s-4.36.85-6.17,2.54c-1.81,1.69-2.71,3.91-2.71,6.64v31.18h-12.14Z"/>
      </g>
    </g>
  </g>
</svg>