<?xml version="1.0" encoding="UTF-8"?>
<svg id="Layer_2" data-name="Layer 2" xmlns="http://www.w3.org/2000/svg" viewBox="0 0 916.17 791.35">
  <defs>
    <style>
      .cls-1 {
        fill: #333;
      }
    </style>
  </defs>
  <g id="Layer_1-2" data-name="Layer 1">
    <g>
      <path class="cls-1" d="M575.92,25.8L567.04.22c-14.23-.11-14.27-.11-28.5-.22l-9.27,25.45c-8.3,3.37-12.5,5.07-20.8,8.43l-24.37-11.81q-10.14,9.99-20.3,20l11.44,24.55c-3.49,8.25-5.26,12.42-8.75,20.67l-25.59,8.88c-.11,14.23-.11,14.27-.22,28.5l25.45,9.27c3.37,8.3,5.07,12.5,8.43,20.8l-11.81,24.37q9.99,10.14,20,20.3l24.55-11.44c8.25,3.49,12.42,5.26,20.67,8.75l8.88,25.59c14.23.11,14.27.11,28.5.22l9.27-25.45c8.3-3.37,12.5-5.07,20.8-8.43l24.37,11.81q10.14-9.99,20.3-20l-11.44-24.55c3.49-8.25,5.26-12.42,8.75-20.67l25.59-8.88c.11-14.23.11-14.27.22-28.5l-25.45-9.27c-3.37-8.3-5.07-12.5-8.43-20.8l11.81-24.37q-9.99-10.14-20-20.3l-24.55,11.44c-8.25-3.49-12.42-5.26-20.67-8.75ZM588.98,148.29c-20.45,20.45-53.61,20.45-74.06,0-20.45-20.45-20.45-53.61,0-74.06,20.45-20.45,53.61-20.45,74.06,0,20.45,20.45,20.45,53.61,0,74.06Z"/>
      <path class="cls-1" d="M883.16,281.56l33.01-29.34q-8.72-21.49-17.44-43.04l-44.17,1.87c-10.22-10.4-15.39-15.64-25.66-26.04l2.62-44.1q-21.37-9.03-42.79-18.06l-29.84,32.52c-14.64-.12-21.99-.19-36.63-.25l-29.34-33.01q-21.49,8.72-43.04,17.44l1.93,44.1c-10.4,10.28-15.7,15.45-26.1,25.73l-44.1-2.62q-9.03,21.37-18.06,42.79l32.52,29.84c-.06,14.64-.12,21.99-.25,36.63l-33.01,29.34q8.72,21.49,17.44,43.04l44.17-1.93c10.22,10.4,15.39,15.7,25.66,26.1l-2.62,44.04q21.37,9.03,42.79,18.13l29.84-32.58c14.64.12,21.99.19,36.63.31l29.34,33.02q21.49-8.72,43.04-17.5l-1.93-44.1c10.4-10.22,15.7-15.45,26.1-25.66l44.1,2.55q9.03-21.37,18.06-42.79l-32.52-29.84c.06-14.58.12-21.99.25-36.57ZM772.15,377.68c-43.54,18-93.5-2.68-111.57-46.22-18.06-43.6,2.68-93.5,46.22-111.57,43.54-18.06,93.5,2.62,111.57,46.22,18.06,43.54-2.68,93.5-46.22,111.57Z"/>
      <path class="cls-1" d="M442.26,694.51l69.66,33.76q28.97-28.54,58.02-57.15l-32.7-70.16c9.98-23.59,15.02-35.5,25-59.09l73.13-25.39c.31-40.67.31-40.77.61-81.44l-72.74-26.49c-9.62-23.74-14.48-35.73-24.11-59.46l33.76-69.66q-28.54-28.97-57.15-58.02l-70.16,32.7c-23.59-9.98-35.5-15.02-59.09-25l-25.39-73.13c-40.67-.31-40.77-.31-81.44-.61l-26.49,72.74c-23.74,9.62-35.73,14.48-59.46,24.11l-69.66-33.76q-28.97,28.54-58.02,57.15l32.7,70.16c-9.98,23.59-15.02,35.5-25,59.09L.62,430.24c-.31,40.67-.31,40.77-.62,81.44l72.74,26.49c9.62,23.74,14.48,35.73,24.1,59.46l-33.76,69.66q28.54,28.97,57.15,58.02l70.16-32.7c23.59,9.98,35.5,15.02,59.09,25l25.39,73.13c40.67.31,40.77.31,81.44.61l26.49-72.74c23.74-9.62,35.73-14.48,59.46-24.11ZM317.99,623.04c-82.67,0-149.68-67.01-149.68-149.68,0-82.67,67.01-149.68,149.68-149.68,82.67,0,149.68,67.01,149.68,149.68,0,82.67-67.01,149.68-149.68,149.68Z"/>
    </g>
  </g>
</svg>