<svg width="2560" height="2561" viewBox="0 0 2560 2561" fill="none" xmlns="http://www.w3.org/2000/svg">
<path d="M2133.33 240.25C1976.53 240.25 1893.33 271.183 1820.8 298.916C1751.47 324.516 1691.73 346.916 1563.73 346.916C1435.73 346.916 1376 324.516 1307.73 298.916C1235.2 271.183 1152 240.25 995.201 240.25C838.401 240.25 756.268 271.183 682.668 298.916C630.401 319.183 582.401 336.25 506.668 343.716V213.583C506.668 169.85 470.401 133.583 426.668 133.583C382.935 133.583 346.668 169.85 346.668 213.583V2346.92C346.668 2390.65 382.935 2426.92 426.668 2426.92C470.401 2426.92 506.668 2390.65 506.668 2346.92V1570.38C613.335 1561.85 679.468 1537.32 739.201 1514.92C808.535 1489.32 868.268 1466.92 995.201 1466.92C1122.13 1466.92 1182.93 1489.32 1251.2 1514.92C1323.73 1542.65 1406.93 1573.58 1563.73 1573.58C1720.53 1573.58 1803.73 1542.65 1876.27 1514.92C1945.6 1489.32 2005.33 1466.92 2133.33 1466.92C2177.07 1466.92 2213.33 1430.65 2213.33 1386.92V320.25C2213.33 276.516 2177.07 240.25 2133.33 240.25ZM2053.33 1310.12C1945.6 1318.65 1880.53 1343.18 1820.8 1365.58C1751.47 1391.18 1691.73 1413.58 1563.73 1413.58C1435.73 1413.58 1376 1391.18 1307.73 1365.58C1235.2 1337.85 1152 1306.92 995.201 1306.92C838.401 1306.92 756.268 1337.85 682.668 1365.58C630.401 1385.85 582.401 1402.92 506.668 1410.38V503.716C613.335 495.183 679.468 470.65 739.201 448.25C808.535 422.65 868.268 400.25 995.201 400.25C1122.13 400.25 1182.93 422.65 1251.2 448.25C1323.73 475.983 1406.93 506.916 1563.73 506.916C1720.53 506.916 1803.73 475.983 1876.27 448.25C1929.6 427.983 1976.53 410.916 2053.33 403.45V1310.12Z" fill="black"/>
</svg>
